<mxfile host="app.diagrams.net" modified="2024-03-10T19:13:59.596Z" agent="Mozilla/5.0 (Windows NT 10.0; Win64; x64) AppleWebKit/537.36 (KHTML, like Gecko) Chrome/122.0.0.0 Safari/537.36" etag="XsDnQVVCX47UN4cR6qXU" version="24.0.4" type="device">
  <diagram name="Page-1" id="t-LFYgbOfKnrrCsjnKww">
    <mxGraphModel dx="2822" dy="2301" grid="1" gridSize="10" guides="1" tooltips="1" connect="1" arrows="1" fold="1" page="1" pageScale="1" pageWidth="827" pageHeight="1169" math="0" shadow="0">
      <root>
        <mxCell id="0" />
        <mxCell id="1" parent="0" />
        <mxCell id="MgPpMZYwyBteUFABBPE0-16" style="edgeStyle=orthogonalEdgeStyle;rounded=0;orthogonalLoop=1;jettySize=auto;html=1;entryX=1;entryY=0;entryDx=0;entryDy=0;" edge="1" parent="1" source="MgPpMZYwyBteUFABBPE0-7" target="MgPpMZYwyBteUFABBPE0-15">
          <mxGeometry relative="1" as="geometry" />
        </mxCell>
        <mxCell id="MgPpMZYwyBteUFABBPE0-7" value="Mean" style="rounded=0;whiteSpace=wrap;html=1;fillColor=#ffffff;" vertex="1" parent="1">
          <mxGeometry x="-150" y="-210" width="80" height="80" as="geometry" />
        </mxCell>
        <mxCell id="MgPpMZYwyBteUFABBPE0-17" style="edgeStyle=orthogonalEdgeStyle;rounded=0;orthogonalLoop=1;jettySize=auto;html=1;entryX=0;entryY=0;entryDx=0;entryDy=0;" edge="1" parent="1" source="MgPpMZYwyBteUFABBPE0-8" target="MgPpMZYwyBteUFABBPE0-15">
          <mxGeometry relative="1" as="geometry" />
        </mxCell>
        <mxCell id="MgPpMZYwyBteUFABBPE0-8" value="std" style="rounded=0;whiteSpace=wrap;html=1;fillColor=#ffffff;" vertex="1" parent="1">
          <mxGeometry x="-250" y="-210" width="80" height="80" as="geometry" />
        </mxCell>
        <mxCell id="MgPpMZYwyBteUFABBPE0-11" value="" style="swimlane;startSize=0;" vertex="1" parent="1">
          <mxGeometry x="-455" y="40" width="515" height="350" as="geometry" />
        </mxCell>
        <mxCell id="MgPpMZYwyBteUFABBPE0-22" style="edgeStyle=orthogonalEdgeStyle;rounded=0;orthogonalLoop=1;jettySize=auto;html=1;exitX=0.5;exitY=1;exitDx=0;exitDy=0;entryX=0;entryY=0;entryDx=0;entryDy=0;" edge="1" parent="MgPpMZYwyBteUFABBPE0-11" source="MgPpMZYwyBteUFABBPE0-3" target="MgPpMZYwyBteUFABBPE0-21">
          <mxGeometry relative="1" as="geometry" />
        </mxCell>
        <mxCell id="MgPpMZYwyBteUFABBPE0-3" value="&lt;span style=&quot;color: rgb(213, 213, 213); font-family: Roboto, Noto, sans-serif; font-size: 16px; text-align: start; background-color: rgb(56, 56, 56);&quot;&gt;σ^2_i&lt;/span&gt;" style="ellipse;whiteSpace=wrap;html=1;aspect=fixed;fillColor=#ffffff;" vertex="1" parent="MgPpMZYwyBteUFABBPE0-11">
          <mxGeometry x="55" y="30" width="90" height="90" as="geometry" />
        </mxCell>
        <mxCell id="MgPpMZYwyBteUFABBPE0-12" value="i in amount of labs" style="text;html=1;align=center;verticalAlign=middle;resizable=0;points=[];autosize=1;strokeColor=none;fillColor=none;" vertex="1" parent="MgPpMZYwyBteUFABBPE0-11">
          <mxGeometry x="395" y="320" width="120" height="30" as="geometry" />
        </mxCell>
        <mxCell id="MgPpMZYwyBteUFABBPE0-24" style="edgeStyle=orthogonalEdgeStyle;rounded=0;orthogonalLoop=1;jettySize=auto;html=1;entryX=1;entryY=0;entryDx=0;entryDy=0;exitX=0.5;exitY=1;exitDx=0;exitDy=0;" edge="1" parent="MgPpMZYwyBteUFABBPE0-11" source="MgPpMZYwyBteUFABBPE0-20" target="MgPpMZYwyBteUFABBPE0-21">
          <mxGeometry relative="1" as="geometry">
            <Array as="points">
              <mxPoint x="295" y="120" />
              <mxPoint x="295" y="160" />
              <mxPoint x="212" y="160" />
            </Array>
          </mxGeometry>
        </mxCell>
        <mxCell id="MgPpMZYwyBteUFABBPE0-20" value="&lt;div style=&quot;color: rgb(212, 212, 212); background-color: rgb(30, 30, 30); font-family: monospace, Consolas, &amp;quot;Courier New&amp;quot;, monospace; font-size: 14px; line-height: 19px; white-space: pre;&quot;&gt;θ_i&lt;/div&gt;" style="ellipse;whiteSpace=wrap;html=1;aspect=fixed;fillColor=#ffffff;" vertex="1" parent="MgPpMZYwyBteUFABBPE0-11">
          <mxGeometry x="247.5" y="30" width="90" height="90" as="geometry" />
        </mxCell>
        <mxCell id="MgPpMZYwyBteUFABBPE0-18" value="" style="swimlane;startSize=0;" vertex="1" parent="MgPpMZYwyBteUFABBPE0-11">
          <mxGeometry x="65" y="180" width="272.5" height="150" as="geometry" />
        </mxCell>
        <mxCell id="MgPpMZYwyBteUFABBPE0-21" value="&lt;div style=&quot;color: rgb(212, 212, 212); background-color: rgb(30, 30, 30); font-family: monospace, Consolas, &amp;quot;Courier New&amp;quot;, monospace; font-size: 14px; line-height: 19px; white-space: pre;&quot;&gt;&lt;div style=&quot;line-height: 19px;&quot;&gt;x_ij&lt;/div&gt;&lt;/div&gt;" style="ellipse;whiteSpace=wrap;html=1;aspect=fixed;fillColor=#f5f5f5;gradientColor=none;strokeColor=#666666;" vertex="1" parent="MgPpMZYwyBteUFABBPE0-18">
          <mxGeometry x="70" y="30" width="90" height="90" as="geometry" />
        </mxCell>
        <mxCell id="MgPpMZYwyBteUFABBPE0-26" value="Amount of measurements" style="text;html=1;align=center;verticalAlign=middle;resizable=0;points=[];autosize=1;strokeColor=none;fillColor=none;" vertex="1" parent="MgPpMZYwyBteUFABBPE0-18">
          <mxGeometry x="112.5" y="120" width="160" height="30" as="geometry" />
        </mxCell>
        <mxCell id="MgPpMZYwyBteUFABBPE0-29" style="edgeStyle=orthogonalEdgeStyle;rounded=0;orthogonalLoop=1;jettySize=auto;html=1;exitX=0.5;exitY=1;exitDx=0;exitDy=0;entryX=0.5;entryY=0;entryDx=0;entryDy=0;" edge="1" parent="1" source="MgPpMZYwyBteUFABBPE0-15" target="MgPpMZYwyBteUFABBPE0-20">
          <mxGeometry relative="1" as="geometry" />
        </mxCell>
        <mxCell id="MgPpMZYwyBteUFABBPE0-15" value="&#xa;&lt;div style=&quot;color: #d4d4d4;background-color: #1e1e1e;font-family: monospace, Consolas, &#39;Courier New&#39;, monospace;font-weight: normal;font-size: 14px;line-height: 19px;white-space: pre;&quot;&gt;&lt;div&gt;&lt;span style=&quot;color: #d4d4d4;&quot;&gt;μ_g&lt;/span&gt;&lt;/div&gt;&lt;/div&gt;&#xa;&#xa;" style="ellipse;whiteSpace=wrap;html=1;aspect=fixed;fillColor=#ffffff;" vertex="1" parent="1">
          <mxGeometry x="-210" y="-90" width="90" height="90" as="geometry" />
        </mxCell>
        <mxCell id="MgPpMZYwyBteUFABBPE0-6" value="Shape_i" style="rounded=0;whiteSpace=wrap;html=1;fillColor=#ffffff;" vertex="1" parent="1">
          <mxGeometry x="-460" y="-80" width="80" height="80" as="geometry" />
        </mxCell>
        <mxCell id="MgPpMZYwyBteUFABBPE0-9" style="edgeStyle=orthogonalEdgeStyle;rounded=0;orthogonalLoop=1;jettySize=auto;html=1;entryX=0;entryY=0;entryDx=0;entryDy=0;" edge="1" parent="1" source="MgPpMZYwyBteUFABBPE0-6" target="MgPpMZYwyBteUFABBPE0-3">
          <mxGeometry relative="1" as="geometry" />
        </mxCell>
        <mxCell id="MgPpMZYwyBteUFABBPE0-5" value="Scale_i" style="rounded=0;whiteSpace=wrap;html=1;fillColor=#ffffff;" vertex="1" parent="1">
          <mxGeometry x="-330" y="-80" width="80" height="80" as="geometry" />
        </mxCell>
        <mxCell id="MgPpMZYwyBteUFABBPE0-10" style="edgeStyle=orthogonalEdgeStyle;rounded=0;orthogonalLoop=1;jettySize=auto;html=1;entryX=1;entryY=0;entryDx=0;entryDy=0;" edge="1" parent="1" source="MgPpMZYwyBteUFABBPE0-5" target="MgPpMZYwyBteUFABBPE0-3">
          <mxGeometry relative="1" as="geometry" />
        </mxCell>
        <mxCell id="MgPpMZYwyBteUFABBPE0-30" value="&lt;span style=&quot;color: rgb(213, 213, 213); font-family: Roboto, Noto, sans-serif; font-size: 16px; text-align: start; background-color: rgb(56, 56, 56);&quot;&gt;σ^2_g&lt;/span&gt;" style="ellipse;whiteSpace=wrap;html=1;aspect=fixed;fillColor=#ffffff;" vertex="1" parent="1">
          <mxGeometry x="20" y="-90" width="90" height="90" as="geometry" />
        </mxCell>
        <mxCell id="MgPpMZYwyBteUFABBPE0-31" value="Shape_g" style="rounded=0;whiteSpace=wrap;html=1;fillColor=#ffffff;" vertex="1" parent="1">
          <mxGeometry x="-40" y="-210" width="80" height="80" as="geometry" />
        </mxCell>
        <mxCell id="MgPpMZYwyBteUFABBPE0-32" style="edgeStyle=orthogonalEdgeStyle;rounded=0;orthogonalLoop=1;jettySize=auto;html=1;entryX=0;entryY=0;entryDx=0;entryDy=0;" edge="1" parent="1" source="MgPpMZYwyBteUFABBPE0-31" target="MgPpMZYwyBteUFABBPE0-30">
          <mxGeometry relative="1" as="geometry" />
        </mxCell>
        <mxCell id="MgPpMZYwyBteUFABBPE0-33" value="Scale_g" style="rounded=0;whiteSpace=wrap;html=1;fillColor=#ffffff;" vertex="1" parent="1">
          <mxGeometry x="90" y="-210" width="80" height="80" as="geometry" />
        </mxCell>
        <mxCell id="MgPpMZYwyBteUFABBPE0-34" style="edgeStyle=orthogonalEdgeStyle;rounded=0;orthogonalLoop=1;jettySize=auto;html=1;entryX=1;entryY=0;entryDx=0;entryDy=0;" edge="1" parent="1" source="MgPpMZYwyBteUFABBPE0-33" target="MgPpMZYwyBteUFABBPE0-30">
          <mxGeometry relative="1" as="geometry" />
        </mxCell>
        <mxCell id="MgPpMZYwyBteUFABBPE0-35" style="edgeStyle=orthogonalEdgeStyle;rounded=0;orthogonalLoop=1;jettySize=auto;html=1;exitX=0.5;exitY=1;exitDx=0;exitDy=0;entryX=0.872;entryY=0.067;entryDx=0;entryDy=0;entryPerimeter=0;" edge="1" parent="1" source="MgPpMZYwyBteUFABBPE0-30" target="MgPpMZYwyBteUFABBPE0-20">
          <mxGeometry relative="1" as="geometry" />
        </mxCell>
      </root>
    </mxGraphModel>
  </diagram>
</mxfile>
